<svg width="211" height="92" viewBox="0 0 211 92" fill="none" xmlns="http://www.w3.org/2000/svg">
<path fill-rule="evenodd" clip-rule="evenodd" d="M137.529 1.14517C137.518 2.0575 137.483 2.3254 137.357 2.46421C137.227 2.60683 137.22 2.66444 137.321 2.78555C137.408 2.88861 137.426 3.09509 137.381 3.47335C137.346 3.77075 137.274 4.45091 137.221 4.98498C137.168 5.5187 137.062 6.49591 136.985 7.1563C136.908 7.81703 136.777 8.98407 136.695 9.74994C136.612 10.5162 136.501 11.4889 136.448 11.9115C136.395 12.3342 136.286 13.2851 136.204 14.0249C136.002 15.8589 135.803 17.6593 135.628 19.2361C135.548 19.9628 135.416 21.1621 135.337 21.902C135.257 22.6415 135.17 23.3765 135.144 23.5351C135.117 23.6933 135.031 24.446 134.953 25.207C134.796 26.7363 134.801 26.7245 133.988 27.3117C133.721 27.5043 133.283 27.8357 133.013 28.0481C132.743 28.2605 132.356 28.5638 132.151 28.7224C131.404 29.3022 131.38 29.2672 132.488 29.2148C133.443 29.1697 135.078 29.0628 137.755 28.8702C138.914 28.7869 138.914 28.7869 140.801 29.213C141.838 29.4476 142.759 29.6277 142.846 29.6132C143.003 29.5871 142.741 29.271 140.802 27.1472L140.174 26.4587L140.053 25.3812C139.986 24.7885 139.864 23.6333 139.782 22.8146C139.641 21.4106 139.536 20.3883 139.207 17.195C139.131 16.4551 139.003 15.2017 138.923 14.4091C138.842 13.6165 138.689 12.177 138.582 11.2099C138.475 10.2427 138.322 8.77308 138.243 7.94369C137.921 4.55467 137.806 3.44767 137.757 3.24292C137.729 3.12494 137.758 2.94379 137.823 2.84073C137.914 2.69567 137.915 2.60336 137.826 2.43124C137.763 2.30909 137.674 1.71221 137.627 1.10457L137.542 0L137.529 1.14517ZM134.796 30.6754L134.47 30.9662L134.499 32.6742C134.532 34.6856 134.419 34.468 135.386 34.3844L136.173 34.316L136.143 32.6024C136.116 31.038 136.096 30.8718 135.92 30.6962C135.572 30.3513 135.168 30.3436 134.796 30.6754ZM140.571 31.1203C140.444 31.3143 140.415 31.6443 140.415 32.9345C140.415 34.7002 140.382 34.6256 141.171 34.6287L141.491 34.6301L141.461 32.8929C141.433 31.3039 141.414 31.1442 141.243 31.02C140.967 30.8201 140.748 30.8531 140.571 31.1203ZM134.722 37.568C134.431 37.9355 134.394 38.1423 134.562 38.465C134.987 39.2798 136.109 39.0088 136.109 38.0913C136.109 37.3677 135.163 37.0106 134.722 37.568ZM140.55 37.8501C140.26 38.2901 140.562 39.1448 141.008 39.1448C141.435 39.1448 141.628 38.1624 141.282 37.7484C141.098 37.5274 140.729 37.5787 140.55 37.8501ZM125.721 38.2877C124.471 38.3272 120.91 38.4282 117.808 38.5126C114.705 38.5969 112.127 38.6899 112.079 38.7194C112.001 38.7673 111.478 39.5425 110.593 40.9219C110.423 41.1864 109.984 41.8644 109.616 42.4287C109.249 42.9933 108.833 43.6419 108.692 43.8699C108.552 44.0979 108.175 44.6531 107.45 46.4784C107.208 47.026 106.839 47.7695 106.654 48.2781C106.469 48.6917 106.825 48.0075 106.285 49.0874C106.1 49.4562 105.546 50.5361 105.546 50.5361C105.015 51.3591 105 51.7445 105 52.3216L109.813 52.4014C111.314 52.4014 115.086 52.4299 118.196 52.4649L123.851 52.5284L125.83 49.5593C126.918 47.9259 128.198 45.9978 128.674 45.2739L129.539 43.9584L130.167 43.9292C130.888 43.8956 130.781 44.0253 131.491 42.3229L131.908 41.322V38.1843L129.95 38.2002C128.874 38.2093 126.97 38.2485 125.721 38.2877ZM170.945 39.26C170.707 39.6459 170.378 40.1776 170.213 40.4416C170.048 40.7061 169.641 41.3678 169.308 41.9127C168.976 42.4572 168.668 42.9246 168.626 42.951C168.501 43.0273 168.535 43.1797 168.677 43.1797C168.748 43.1797 168.989 42.8961 169.213 42.5498C169.437 42.2035 170.061 41.2481 170.6 40.4264L171.58 38.9324L171.78 39.2042C171.889 39.3537 172.257 39.9093 172.597 40.4392C172.936 40.9691 173.397 41.6833 173.62 42.0268C173.843 42.3701 174.691 43.6887 175.504 44.9568C177.242 47.666 177.385 47.8877 178.304 49.2949L179.003 50.3672L179.89 50.4196C181.235 50.4991 188.759 50.6979 188.802 50.6552C188.823 50.6347 188.609 50.2735 188.327 49.8525C188.045 49.4316 187.532 48.655 187.186 48.1268C186.84 47.5983 186.188 46.6041 185.736 45.9173C185.284 45.2306 184.625 44.2252 184.272 43.6839C183.573 42.6137 182.729 41.3241 181.74 39.8132C180.981 38.6531 181.423 38.7884 178.148 38.7145L175.422 38.6527H174.306C174.306 38.6527 173.89 38.6708 172.79 38.6215L171.377 38.5584L170.945 39.26ZM151.775 43.0908C150.388 43.1901 147.823 43.3469 144.814 43.5163C143.485 43.5912 141.679 43.6971 140.802 43.7515C139.925 43.806 138.097 43.9167 136.742 43.9976C132.071 44.2763 129.733 44.4466 129.708 44.5094C129.694 44.5441 129.386 45.0262 129.023 45.581C128.66 46.1359 127.632 47.7135 126.738 49.0874C124.915 51.8892 124.259 52.8949 123.578 53.9276C122.986 54.8268 122.987 54.8407 123.667 54.7702C123.972 54.7383 125.462 54.6668 126.978 54.6113C128.493 54.5557 130.603 54.469 131.666 54.4183C132.73 54.3677 134.948 54.2802 136.597 54.2243C139.531 54.1244 142.153 53.9828 142.195 53.9214C142.306 53.7607 144.001 51.0015 144.917 49.4906L146.071 47.5882L146.989 47.6486C147.494 47.6819 148.386 47.7701 148.971 47.845C150.659 48.0609 150.566 48.0866 150.566 47.4064V46.83H151.541L152.362 45.1421C153.28 43.2553 153.248 43.2779 153.739 44.159C154.633 45.7643 156.132 48.2698 156.199 48.2705C156.309 48.2712 156.059 47.7257 155.442 46.6197C154.888 45.6272 154.684 45.2552 153.88 43.78C153.389 42.8771 153.635 42.9576 151.775 43.0908ZM160.322 43.1453C159.914 43.6214 157.326 48.0293 157.353 48.2042C157.373 48.3437 157.573 48.0994 158.052 47.3505C158.42 46.7734 159.034 45.8222 159.417 45.2368C159.8 44.651 160.216 43.992 160.342 43.7724C160.676 43.1925 160.56 43.0939 161.797 45.0046C162.224 45.665 162.863 46.6475 163.217 47.1874C163.57 47.7274 164.199 48.6893 164.615 49.3247L165.371 50.4803L166.548 50.482C167.196 50.4831 169.162 50.5469 170.916 50.624C174.207 50.7687 176.475 50.8069 176.475 50.7173C176.475 50.6892 176.243 50.3543 175.96 49.973C175.187 48.9298 173.684 46.8827 173.037 45.9916C172.721 45.5571 172.23 44.8821 171.946 44.4917L171.43 43.7821L170.738 43.7231C168.594 43.5392 166.565 43.3736 166.375 43.3736H166L165.652 43.2727H165.085C165.085 43.2727 164.933 43.2754 164.593 43.2727C164.194 43.2695 162.034 43.1182 161.104 43.028C160.564 42.976 160.453 42.9926 160.322 43.1453ZM146.893 48.1313C146.893 48.1768 147.752 49.4392 149.161 51.4634C149.481 51.925 150.375 53.2124 151.146 54.3246C151.917 55.4365 152.876 56.8097 153.276 57.376L154.004 58.4053L154.726 58.466C155.123 58.4997 155.871 58.5541 156.387 58.5878L157.326 58.6489L156.838 57.5665C156.569 56.971 156.054 55.814 155.693 54.9951C155.331 54.1761 154.878 53.1673 154.686 52.7533C154.212 51.7365 153.935 51.8632 157.164 51.6227C158.001 51.5606 158.687 51.4731 158.687 51.4287C158.687 51.0987 157.394 49.7117 157.087 49.7117C156.795 49.7117 156.569 49.527 156.417 49.1648C156.399 49.1224 155.075 48.9392 153.805 48.8032C153.06 48.7237 152.288 48.6303 152.089 48.596L151.726 48.5339V49.339L151.364 49.3091C151.044 49.2831 150.979 49.2321 150.816 48.883C150.608 48.4402 150.833 48.5037 148.681 48.2781C148.149 48.2222 147.529 48.1553 147.303 48.1296C147.077 48.1036 146.893 48.1046 146.893 48.1313ZM161.104 51.6741C161.104 51.7497 160.957 52.2578 160.777 52.8029C160.597 53.3481 160.224 54.5075 159.947 55.3792C159.67 56.2509 159.372 57.1674 159.286 57.4159C159.199 57.664 159.154 57.8931 159.186 57.925C159.245 57.9836 165.075 58.2855 165.128 58.2324C165.144 58.2165 164.731 57.4707 164.209 56.5754C163.688 55.6798 162.815 54.1799 162.269 53.2419C161.344 51.6536 161.104 51.3302 161.104 51.6741ZM174.578 52.9539C174.381 53.3103 173.943 54.0706 173.607 54.6428C173.27 55.2154 172.994 55.6992 172.994 55.7183C172.994 55.7377 172.838 56.0181 172.647 56.3419C172.456 56.6656 172.315 56.9436 172.333 56.9596C172.351 56.9752 174.999 57.0189 178.217 57.0567L184.067 57.1254L184.271 56.7566C184.383 56.5539 184.771 55.8262 185.132 55.1391C186.079 53.3419 186.308 52.9383 186.4 52.9122C186.444 52.8994 186.959 53.6691 187.544 54.6231C188.726 56.5508 188.9 56.801 188.993 56.7087C189.053 56.6493 188.705 55.9612 188.223 55.1873C188.107 55.0024 187.837 54.5269 187.621 54.1306C187.406 53.7343 187.102 53.194 186.945 52.9299L186.661 52.4493L183.96 52.3903C182.475 52.3581 179.838 52.3254 178.099 52.3185L174.938 52.3053L174.578 52.9539Z" fill="white"/>
<path d="M5.51562 89.1641H13.8555C15.0664 89.1641 16.0885 88.7018 16.9219 87.7773C17.7682 86.8398 18.4062 86.1107 18.8359 85.5898C19.0703 85.3034 19.2526 85.1602 19.3828 85.1602C19.6562 85.1602 19.793 85.2969 19.793 85.5703C19.793 85.7396 19.7799 85.8763 19.7539 85.9805L18.3281 91H0.4375C0.164062 91 0.0273438 90.8633 0.0273438 90.5898C0.0273438 90.2643 0.352865 89.9909 1.00391 89.7695C1.65495 89.5352 1.98047 88.9948 1.98047 88.1484V66.4492C1.98047 65.6159 1.65495 65.082 1.00391 64.8477C0.352865 64.6133 0.0273438 64.3268 0.0273438 63.9883C0.0273438 63.7148 0.164062 63.5781 0.4375 63.5781H7.05859C7.31901 63.5781 7.44922 63.7148 7.44922 63.9883C7.44922 64.3268 7.1237 64.6133 6.47266 64.8477C5.82161 65.082 5.49609 65.6159 5.49609 66.4492L5.51562 89.1641Z" fill="white"/>
<path d="M37.0195 89.3008L31.6484 91.2734C31.2318 91.4167 30.8867 91.4883 30.6133 91.4883H29.8125C27.9635 91.3971 26.3685 90.6419 25.0273 89.2227C23.6862 87.8034 22.9245 86.0586 22.7422 83.9883C22.6901 83.4414 22.6641 82.9141 22.6641 82.4062C22.6641 81.7292 22.7096 81.0716 22.8008 80.4336C22.957 79.3268 23.3867 78.2201 24.0898 77.1133C24.4284 76.5404 25.0078 75.9414 25.8281 75.3164C26.1146 75.1211 26.4336 74.9453 26.7852 74.7891C27.8268 74.3984 28.8685 74.0078 29.9102 73.6172C30.9648 73.2266 32.0195 72.8359 33.0742 72.4453C33.2956 72.3672 33.5039 72.3281 33.6992 72.3281H33.7969C34.6302 72.3672 35.6393 72.5755 36.8242 72.9531C36.9284 72.9922 36.9935 73.0182 37.0195 73.0312C37.306 73.1484 37.6576 73.2786 38.0742 73.4219C38.2435 73.474 38.3997 73.5 38.543 73.5C38.7513 73.5 38.9336 73.4414 39.0898 73.3242C39.3633 73.0898 39.5586 72.8945 39.6758 72.7383C39.7409 72.6471 39.8255 72.6016 39.9297 72.6016C39.9948 72.6016 40.0599 72.6146 40.125 72.6406C40.4115 72.7448 40.5547 72.875 40.5547 73.0312V88.1484C40.5547 88.9948 40.8802 89.5352 41.5312 89.7695C42.1823 89.9909 42.5078 90.2643 42.5078 90.5898C42.5078 90.8633 42.3711 91 42.0977 91H37.3516C37.1302 91 37.0195 90.9154 37.0195 90.7461V89.3008ZM37.0195 75.9805C36.4857 75.4857 35.7826 75.0299 34.9102 74.6133C34.0378 74.1836 33.263 73.9557 32.5859 73.9297H32.5078C32.2474 73.9297 31.987 73.9818 31.7266 74.0859C31.2578 74.2552 30.7891 74.431 30.3203 74.6133C29.8646 74.7826 29.4023 74.9518 28.9336 75.1211C28.6081 75.2513 28.3477 75.4206 28.1523 75.6289C27.3451 76.4883 26.8047 77.5299 26.5312 78.7539C26.3099 79.6784 26.1992 80.5964 26.1992 81.5078C26.1992 81.7943 26.2122 82.0872 26.2383 82.3867C26.3815 84.2617 26.8893 85.7852 27.7617 86.957C28.6341 88.168 29.7279 88.9557 31.043 89.3203C31.5378 89.4635 32.0391 89.5352 32.5469 89.5352C32.7031 89.5352 32.8659 89.5286 33.0352 89.5156C33.3216 89.4896 33.6602 89.4049 34.0508 89.2617C34.3503 89.1576 34.819 88.9883 35.457 88.7539C36.0951 88.5065 36.6159 88.3047 37.0195 88.1484V75.9805Z" fill="white"/>
<path d="M71.3359 91.7227C67.3385 91.7227 63.7969 90.4466 60.7109 87.8945C57.625 85.3424 56.082 81.8138 56.082 77.3086C56.082 72.9206 57.5794 69.4049 60.5742 66.7617C63.582 64.1055 67.1693 62.7773 71.3359 62.7773C72.8333 62.7773 74.4219 62.9466 76.1016 63.2852C77.7943 63.6107 79.4023 64.2617 80.9258 65.2383L80.457 69.3398C80.4049 69.5742 80.2747 69.6914 80.0664 69.6914H80.0078C79.8516 69.6784 79.6823 69.4961 79.5 69.1445C78.7448 67.5169 77.612 66.319 76.1016 65.5508C74.6953 64.8607 73.1979 64.5156 71.6094 64.5156H71.1992C67.6836 64.6719 64.9362 66.0781 62.957 68.7344C61.1732 71.1172 60.2812 73.7539 60.2812 76.6445C60.2812 76.9701 60.2943 77.2956 60.3203 77.6211C60.5026 80.6159 61.5573 83.3438 63.4844 85.8047C65.4115 88.2656 68.0286 89.5742 71.3359 89.7305C71.6484 89.7435 71.9479 89.75 72.2344 89.75C73.901 89.75 75.2747 89.4961 76.3555 88.9883C77.6055 88.3893 78.6536 87.1849 79.5 85.375C79.6693 85.0104 79.8776 84.8281 80.125 84.8281C80.1771 84.8281 80.2292 84.8346 80.2812 84.8477C80.4896 84.9258 80.5938 85.0755 80.5938 85.2969C80.5938 85.401 80.5677 85.5182 80.5156 85.6484L78.8164 90.3945C77.5664 90.9154 76.2969 91.2669 75.0078 91.4492C73.7188 91.6315 72.4948 91.7227 71.3359 91.7227Z" fill="white"/>
<path d="M93.5039 72.3281C96.043 72.4323 98.1914 73.4154 99.9492 75.2773C101.707 77.1263 102.605 79.3398 102.645 81.918V82.0352C102.645 84.6393 101.727 86.8398 99.8906 88.6367C98.0156 90.4596 95.7305 91.4102 93.0352 91.4883H92.7227C90.2227 91.4883 88.0677 90.5638 86.2578 88.7148C84.3828 86.8138 83.4453 84.5677 83.4453 81.9766V81.918C83.4583 79.0664 84.5326 76.6706 86.668 74.7305C86.9154 74.4961 87.2799 74.2943 87.7617 74.125C88.2565 73.9557 88.9857 73.6953 89.9492 73.3438C90.5221 73.1354 91.1536 72.9076 91.8438 72.6602C92.4948 72.4388 93.0286 72.3281 93.4453 72.3281H93.5039ZM93.0938 73.6367H92.8594C91.3359 73.6367 90.0273 74.3724 88.9336 75.8438C87.7747 77.4062 87.1953 79.3268 87.1953 81.6055C87.1953 83.8841 87.7617 85.8633 88.8945 87.543C90.0404 89.2096 91.4271 90.082 93.0547 90.1602H93.3281C94.8385 90.1602 96.1406 89.4245 97.2344 87.9531C98.3802 86.4036 98.9531 84.4896 98.9531 82.2109C98.9531 79.9323 98.3802 77.9596 97.2344 76.293C96.0885 74.6133 94.7083 73.7279 93.0938 73.6367Z" fill="white"/>
<path d="M124.188 88.1484C124.188 88.9948 124.513 89.5352 125.164 89.7695C125.815 89.9909 126.141 90.2643 126.141 90.5898C126.141 90.8633 126.004 91 125.73 91H120.984C120.763 91 120.652 90.9154 120.652 90.7461V89.4766C119.936 89.75 119.298 89.9974 118.738 90.2188C118.191 90.4271 117.684 90.6094 117.215 90.7656C116.004 91.1693 114.76 91.4362 113.484 91.5664C113.302 91.5794 113.126 91.5859 112.957 91.5859C111.876 91.5859 110.848 91.2214 109.871 90.4922C108.283 89.2943 107.488 86.6966 107.488 82.6992V75.6484C107.488 74.8281 107.163 74.3008 106.512 74.0664C105.861 73.832 105.535 73.5456 105.535 73.207C105.535 72.9336 105.672 72.7969 105.945 72.7969C106.805 72.7578 107.651 72.6276 108.484 72.4062C109.331 72.1719 110.177 71.9115 111.023 71.625V82.6992C111.023 85.5638 111.616 87.569 112.801 88.7148C113.556 89.457 114.48 89.8281 115.574 89.8281C116.199 89.8281 116.883 89.7044 117.625 89.457C117.898 89.3659 118.257 89.2357 118.699 89.0664C119.142 88.8971 119.52 88.7539 119.832 88.6367C119.897 88.6107 120.001 88.5716 120.145 88.5195C120.301 88.4674 120.47 88.4023 120.652 88.3242V75.6484C120.652 74.8281 120.327 74.3008 119.676 74.0664C119.025 73.832 118.699 73.5456 118.699 73.207C118.699 72.9336 118.836 72.7969 119.109 72.7969C119.969 72.7578 120.815 72.6276 121.648 72.4062C122.495 72.1719 123.341 71.9115 124.188 71.625V88.1484Z" fill="white"/>
<path d="M135.965 79.3789V88.1484C135.965 88.9948 136.284 89.5352 136.922 89.7695C137.573 89.9909 137.898 90.2643 137.898 90.5898C137.898 90.8633 137.768 91 137.508 91H130.887C130.613 91 130.477 90.8633 130.477 90.5898C130.477 90.2643 130.802 89.9909 131.453 89.7695C132.104 89.5352 132.43 88.9948 132.43 88.1484V75.6484C132.43 74.8281 132.104 74.3008 131.453 74.0664C130.802 73.832 130.477 73.5456 130.477 73.207C130.477 72.9336 130.613 72.7969 130.887 72.7969C131.746 72.7578 132.592 72.6276 133.426 72.4062C134.272 72.1719 135.118 71.9115 135.965 71.625V74.2031L138.68 73.168C139.682 72.7904 140.464 72.5104 141.023 72.3281C141.193 72.276 141.395 72.25 141.629 72.25C142.111 72.25 142.723 72.3802 143.465 72.6406L143.035 77.543H142.137C141.629 75.6419 140.652 74.6914 139.207 74.6914C139.064 74.6914 138.921 74.6979 138.777 74.7109C137.788 74.8281 137.078 75.3359 136.648 76.2344C136.232 77.1198 136.004 78.168 135.965 79.3789Z" fill="white"/>
<path d="M148.387 74.4961C147.892 74.5091 147.15 74.5417 146.16 74.5938H146.062C145.815 74.5938 145.685 74.4635 145.672 74.2031V74.1641C145.672 73.9557 145.796 73.793 146.043 73.6758C146.303 73.5586 146.844 73.2786 147.664 72.8359C147.859 72.7318 148.048 72.6406 148.23 72.5625C148.27 72.5495 148.322 72.543 148.387 72.543V69.2031C148.387 68.5521 148.517 68.1029 148.777 67.8555C149.051 67.5951 149.669 67.237 150.633 66.7812C150.984 66.612 151.264 66.5273 151.473 66.5273C151.772 66.5273 151.922 66.6966 151.922 67.0352V72.4844L156.57 72.3867H156.59C156.785 72.3867 156.883 72.556 156.883 72.8945C156.883 73.0768 156.857 73.2982 156.805 73.5586C156.674 74.1706 156.382 74.4766 155.926 74.4766L151.922 74.457V86.7031C151.922 87.888 152.332 88.7734 153.152 89.3594C153.986 89.9453 154.695 90.2773 155.281 90.3555V90.9805C153.341 90.9805 151.707 90.7982 150.379 90.4336C149.051 90.069 148.387 88.6302 148.387 86.1172V74.4961Z" fill="white"/>
<path d="M163.562 63.6562C164.982 63.6562 165.691 64.3724 165.691 65.8047C165.691 67.25 164.982 67.9727 163.562 67.9727C162.143 67.9727 161.434 67.25 161.434 65.8047C161.434 64.3724 162.143 63.6562 163.562 63.6562ZM165.32 88.1484C165.32 88.9948 165.646 89.5352 166.297 89.7695C166.948 89.9909 167.273 90.2643 167.273 90.5898C167.273 90.8633 167.143 91 166.883 91H160.262C159.988 91 159.852 90.8633 159.852 90.5898C159.852 90.2643 160.177 89.9909 160.828 89.7695C161.479 89.5352 161.805 88.9948 161.805 88.1484V75.6484C161.805 74.8281 161.479 74.3008 160.828 74.0664C160.177 73.832 159.852 73.5456 159.852 73.207C159.852 72.9336 159.988 72.7969 160.262 72.7969C161.121 72.7578 161.967 72.6276 162.801 72.4062C163.647 72.1719 164.487 71.9115 165.32 71.625V88.1484Z" fill="white"/>
<path d="M176.336 74.3398C177.052 74.0664 177.684 73.8255 178.23 73.6172C178.777 73.4089 179.298 73.2201 179.793 73.0508C180.991 72.6341 182.234 72.3607 183.523 72.2305C183.68 72.2174 183.842 72.2109 184.012 72.2109C185.105 72.2109 186.147 72.582 187.137 73.3242C188.712 74.5352 189.5 77.1328 189.5 81.1172V88.1484C189.5 88.9948 189.826 89.5352 190.477 89.7695C191.128 89.9909 191.453 90.2643 191.453 90.5898C191.453 90.8633 191.323 91 191.062 91H186.316C186.095 91 185.984 90.9154 185.984 90.7461V81.1172C185.984 78.2656 185.392 76.2604 184.207 75.1016C183.452 74.3594 182.527 73.9883 181.434 73.9883C180.809 73.9883 180.125 74.112 179.383 74.3594C179.096 74.4635 178.732 74.6003 178.289 74.7695C177.859 74.9258 177.488 75.0625 177.176 75.1797C176.863 75.2969 176.583 75.401 176.336 75.4922V88.1484C176.336 88.9948 176.661 89.5352 177.312 89.7695C177.964 89.9909 178.289 90.2643 178.289 90.5898C178.289 90.8633 178.159 91 177.898 91H171.277C171.004 91 170.867 90.8633 170.867 90.5898C170.867 90.2643 171.193 89.9909 171.844 89.7695C172.495 89.5352 172.82 88.9948 172.82 88.1484V75.6484C172.82 74.8281 172.495 74.3008 171.844 74.0664C171.193 73.832 170.867 73.5456 170.867 73.207C170.867 72.9336 171.004 72.7969 171.277 72.7969C172.137 72.7578 172.983 72.6276 173.816 72.4062C174.663 72.1719 175.503 71.9115 176.336 71.625V74.3398Z" fill="white"/>
<path d="M193.934 80.2383C194.298 77.8294 195.255 75.9023 196.805 74.457C198.367 73.0117 200.418 72.276 202.957 72.25H203.035C205.6 72.25 207.56 72.9792 208.914 74.4375C210.268 75.9219 210.945 77.8555 210.945 80.2383C210.932 80.7591 210.913 81.1302 210.887 81.3516C210.861 81.5599 210.594 81.6641 210.086 81.6641H197.645C197.684 83.7734 198.217 85.5247 199.246 86.918C200.275 88.2982 201.57 89.1445 203.133 89.457C203.589 89.5612 204.051 89.6133 204.52 89.6133C205.757 89.6133 207.039 89.2552 208.367 88.5391C209.109 88.1354 209.611 87.9336 209.871 87.9336C209.936 87.9336 209.988 87.9466 210.027 87.9727C210.066 88.0117 210.086 88.0703 210.086 88.1484C210.086 88.3177 210.001 88.5586 209.832 88.8711C209.676 89.1836 209.546 89.3919 209.441 89.4961C209.35 89.6003 209.266 89.6914 209.188 89.7695C207.768 90.9935 205.841 91.6055 203.406 91.6055C199.995 91.5794 197.436 90.4857 195.73 88.3242C194.415 86.6576 193.758 84.6784 193.758 82.3867C193.758 81.6966 193.816 80.9805 193.934 80.2383ZM197.645 80.2383H207.938C207.938 78.6497 207.579 77.1914 206.863 75.8633C206.173 74.6003 204.91 73.9688 203.074 73.9688H202.859C201.023 74.0208 199.708 74.6849 198.914 75.9609C198.12 77.237 197.697 78.6628 197.645 80.2383Z" fill="white"/>
<path d="M17.4009 40.1108V51.5029C17.4009 51.9473 17.5718 52.231 17.9136 52.354C18.2622 52.4702 18.4365 52.6138 18.4365 52.7847C18.4365 52.9282 18.3647 53 18.2212 53H14.7451C14.6016 53 14.5298 52.9282 14.5298 52.7847C14.5298 52.6138 14.7007 52.4702 15.0425 52.354C15.3843 52.231 15.5552 51.9473 15.5552 51.5029V40.521L9.63867 53.3076H9.23877L3.38379 41.0029V51.5029C3.38379 51.9473 3.55469 52.231 3.89648 52.354C4.23828 52.4702 4.40918 52.6138 4.40918 52.7847C4.40918 52.9282 4.3374 53 4.19385 53H1.58936C1.4458 53 1.37402 52.9282 1.37402 52.7847C1.37402 52.6138 1.54492 52.4702 1.88672 52.354C2.22852 52.231 2.39941 51.9473 2.39941 51.5029V40.1108C2.39941 39.6733 2.22852 39.3931 1.88672 39.27C1.54492 39.147 1.37402 38.9966 1.37402 38.8188C1.37402 38.6753 1.4458 38.6035 1.58936 38.6035H4.31689L9.92578 50.1084L15.3604 38.6035H18.2212C18.3647 38.6035 18.4365 38.6753 18.4365 38.8188C18.4365 38.9966 18.2622 39.147 17.9136 39.27C17.5718 39.3931 17.4009 39.6733 17.4009 40.1108Z" fill="white"/>
<path d="M27.7368 52.1079L24.917 53.1436C24.6982 53.2188 24.5171 53.2563 24.3735 53.2563H23.9531C22.9824 53.2085 22.145 52.812 21.4409 52.0669C20.7368 51.3218 20.3369 50.4058 20.2412 49.3188C20.2139 49.0317 20.2002 48.7549 20.2002 48.4883C20.2002 48.1328 20.2241 47.7876 20.272 47.4526C20.354 46.8716 20.5796 46.2905 20.9487 45.7095C21.1265 45.4087 21.4307 45.0942 21.8613 44.7661C22.0117 44.6636 22.1792 44.5713 22.3638 44.4893C22.9106 44.2842 23.4575 44.0791 24.0044 43.874C24.5581 43.6689 25.1118 43.4639 25.6655 43.2588C25.7817 43.2178 25.8911 43.1973 25.9937 43.1973H26.0449C26.4824 43.2178 27.0122 43.3271 27.6343 43.5254C27.689 43.5459 27.7231 43.5596 27.7368 43.5664C27.8872 43.6279 28.0718 43.6963 28.2905 43.7715C28.3794 43.7988 28.4614 43.8125 28.5366 43.8125C28.646 43.8125 28.7417 43.7817 28.8237 43.7202C28.9673 43.5972 29.0698 43.4946 29.1313 43.4126C29.1655 43.3647 29.21 43.3408 29.2646 43.3408C29.2988 43.3408 29.333 43.3477 29.3672 43.3613C29.5176 43.416 29.5928 43.4844 29.5928 43.5664V51.5029C29.5928 51.9473 29.7637 52.231 30.1055 52.354C30.4473 52.4702 30.6182 52.6138 30.6182 52.7847C30.6182 52.9282 30.5464 53 30.4028 53H27.9111C27.7949 53 27.7368 52.9556 27.7368 52.8667V52.1079ZM27.7368 45.1147C27.4565 44.855 27.0874 44.6157 26.6294 44.397C26.1714 44.1714 25.7646 44.0518 25.4092 44.0381H25.3682C25.2314 44.0381 25.0947 44.0654 24.958 44.1201C24.7119 44.209 24.4658 44.3013 24.2197 44.397C23.9805 44.4858 23.7378 44.5747 23.4917 44.6636C23.3208 44.7319 23.1841 44.8208 23.0815 44.9302C22.6577 45.3813 22.374 45.9282 22.2305 46.5708C22.1143 47.0562 22.0562 47.5381 22.0562 48.0166C22.0562 48.167 22.063 48.3208 22.0767 48.478C22.1519 49.4624 22.4185 50.2622 22.8765 50.8774C23.3345 51.5132 23.9087 51.9268 24.5991 52.1182C24.8589 52.1934 25.1221 52.231 25.3887 52.231C25.4707 52.231 25.5562 52.2275 25.645 52.2207C25.7954 52.207 25.9731 52.1626 26.1782 52.0874C26.3354 52.0327 26.5815 51.9438 26.9165 51.8208C27.2515 51.6909 27.5249 51.585 27.7368 51.5029V45.1147Z" fill="white"/>
<path d="M34.5146 38.6445C35.2598 38.6445 35.6323 39.0205 35.6323 39.7725C35.6323 40.5312 35.2598 40.9106 34.5146 40.9106C33.7695 40.9106 33.397 40.5312 33.397 39.7725C33.397 39.0205 33.7695 38.6445 34.5146 38.6445ZM35.4375 51.5029C35.4375 51.9473 35.6084 52.231 35.9502 52.354C36.292 52.4702 36.4629 52.6138 36.4629 52.7847C36.4629 52.9282 36.3945 53 36.2578 53H32.7817C32.6382 53 32.5664 52.9282 32.5664 52.7847C32.5664 52.6138 32.7373 52.4702 33.0791 52.354C33.4209 52.231 33.5918 51.9473 33.5918 51.5029V44.9404C33.5918 44.5098 33.4209 44.2329 33.0791 44.1099C32.7373 43.9868 32.5664 43.8364 32.5664 43.6587C32.5664 43.5151 32.6382 43.4434 32.7817 43.4434C33.2329 43.4229 33.6772 43.3545 34.1147 43.2383C34.5591 43.1152 35 42.9785 35.4375 42.8281V51.5029Z" fill="white"/>
<path d="M41.6411 46.8989V51.5029C41.6411 51.9473 41.8086 52.231 42.1436 52.354C42.4854 52.4702 42.6562 52.6138 42.6562 52.7847C42.6562 52.9282 42.5879 53 42.4512 53H38.9751C38.8315 53 38.7598 52.9282 38.7598 52.7847C38.7598 52.6138 38.9307 52.4702 39.2725 52.354C39.6143 52.231 39.7852 51.9473 39.7852 51.5029V44.9404C39.7852 44.5098 39.6143 44.2329 39.2725 44.1099C38.9307 43.9868 38.7598 43.8364 38.7598 43.6587C38.7598 43.5151 38.8315 43.4434 38.9751 43.4434C39.4263 43.4229 39.8706 43.3545 40.3081 43.2383C40.7524 43.1152 41.1968 42.9785 41.6411 42.8281V44.1816L43.0664 43.6382C43.5928 43.4399 44.0029 43.293 44.2969 43.1973C44.3857 43.1699 44.4917 43.1562 44.6147 43.1562C44.8677 43.1562 45.189 43.2246 45.5786 43.3613L45.353 45.9351H44.8813C44.6147 44.937 44.1021 44.438 43.3433 44.438C43.2681 44.438 43.1929 44.4414 43.1177 44.4482C42.5981 44.5098 42.2256 44.7764 42 45.248C41.7812 45.7129 41.6616 46.2632 41.6411 46.8989Z" fill="white"/>
<path d="M49.1367 38.6445C49.8818 38.6445 50.2544 39.0205 50.2544 39.7725C50.2544 40.5312 49.8818 40.9106 49.1367 40.9106C48.3916 40.9106 48.019 40.5312 48.019 39.7725C48.019 39.0205 48.3916 38.6445 49.1367 38.6445ZM50.0596 51.5029C50.0596 51.9473 50.2305 52.231 50.5723 52.354C50.9141 52.4702 51.085 52.6138 51.085 52.7847C51.085 52.9282 51.0166 53 50.8799 53H47.4038C47.2603 53 47.1885 52.9282 47.1885 52.7847C47.1885 52.6138 47.3594 52.4702 47.7012 52.354C48.043 52.231 48.2139 51.9473 48.2139 51.5029V44.9404C48.2139 44.5098 48.043 44.2329 47.7012 44.1099C47.3594 43.9868 47.1885 43.8364 47.1885 43.6587C47.1885 43.5151 47.2603 43.4434 47.4038 43.4434C47.855 43.4229 48.2993 43.3545 48.7368 43.2383C49.1812 43.1152 49.6221 42.9785 50.0596 42.8281V51.5029Z" fill="white"/>
<path d="M52.8589 47.3501C53.0503 46.0854 53.5527 45.0737 54.3662 44.3149C55.1865 43.5562 56.2632 43.1699 57.5962 43.1562H57.6372C58.9839 43.1562 60.0127 43.5391 60.7236 44.3047C61.4346 45.084 61.79 46.0991 61.79 47.3501C61.7832 47.6235 61.7729 47.8184 61.7593 47.9346C61.7456 48.0439 61.6055 48.0986 61.3389 48.0986H54.8071C54.8276 49.2061 55.1079 50.1255 55.6479 50.8569C56.188 51.5815 56.8682 52.0259 57.6885 52.1899C57.9277 52.2446 58.1704 52.272 58.4165 52.272C59.0659 52.272 59.7393 52.084 60.4365 51.708C60.8262 51.4961 61.0894 51.3901 61.2261 51.3901C61.2603 51.3901 61.2876 51.397 61.3081 51.4106C61.3286 51.4312 61.3389 51.4619 61.3389 51.5029C61.3389 51.5918 61.2944 51.7183 61.2056 51.8823C61.1235 52.0464 61.0552 52.1558 61.0005 52.2104C60.9526 52.2651 60.9082 52.313 60.8672 52.354C60.1221 52.9966 59.1104 53.3179 57.832 53.3179C56.041 53.3042 54.6978 52.73 53.8022 51.5952C53.1118 50.7202 52.7666 49.6812 52.7666 48.478C52.7666 48.1157 52.7974 47.7397 52.8589 47.3501ZM54.8071 47.3501H60.2109C60.2109 46.5161 60.0229 45.7505 59.647 45.0532C59.2847 44.3901 58.6216 44.0586 57.6577 44.0586H57.5449C56.5811 44.0859 55.8906 44.4346 55.4736 45.1045C55.0566 45.7744 54.8345 46.5229 54.8071 47.3501Z" fill="white"/>
<path d="M76.4429 52.1079L73.623 53.1436C73.4043 53.2188 73.2231 53.2563 73.0796 53.2563H72.6592C71.6885 53.2085 70.8511 52.812 70.147 52.0669C69.4429 51.3218 69.043 50.4058 68.9473 49.3188C68.9199 49.0317 68.9062 48.7549 68.9062 48.4883C68.9062 48.1328 68.9302 47.7876 68.978 47.4526C69.0601 46.8716 69.2856 46.2905 69.6548 45.7095C69.8325 45.4087 70.1367 45.0942 70.5674 44.7661C70.7178 44.6636 70.8853 44.5713 71.0698 44.4893C71.6167 44.2842 72.1636 44.0791 72.7104 43.874C73.2642 43.6689 73.8179 43.4639 74.3716 43.2588C74.4878 43.2178 74.5972 43.1973 74.6997 43.1973H74.751C75.1885 43.2178 75.7183 43.3271 76.3403 43.5254C76.395 43.5459 76.4292 43.5596 76.4429 43.5664V40.1108C76.4429 39.6733 76.272 39.3931 75.9302 39.27C75.5884 39.147 75.4175 38.9966 75.4175 38.8188C75.4175 38.6753 75.4893 38.6035 75.6328 38.6035C76.084 38.583 76.5283 38.5146 76.9658 38.3984C77.4102 38.2822 77.8545 38.1489 78.2988 37.9985V51.5029C78.2988 51.9473 78.4697 52.231 78.8115 52.354C79.1533 52.4702 79.3242 52.6138 79.3242 52.7847C79.3242 52.9282 79.2524 53 79.1089 53H76.6172C76.501 53 76.4429 52.9556 76.4429 52.8667V52.1079ZM76.4429 45.1045C76.1353 44.8242 75.7559 44.5815 75.3047 44.3765C74.8604 44.1646 74.4639 44.0518 74.1152 44.0381H74.0742C73.9375 44.0381 73.8008 44.0654 73.6641 44.1201C73.418 44.209 73.1719 44.3013 72.9258 44.397C72.6865 44.4858 72.4438 44.5747 72.1978 44.6636C72.0269 44.7319 71.8901 44.8208 71.7876 44.9302C71.3638 45.3813 71.0801 45.9282 70.9365 46.5708C70.8203 47.0562 70.7622 47.5381 70.7622 48.0166C70.7622 48.167 70.769 48.3208 70.7827 48.478C70.8579 49.4624 71.1245 50.2622 71.5825 50.8774C72.0405 51.5132 72.6147 51.9268 73.3052 52.1182C73.5649 52.1934 73.8281 52.231 74.0947 52.231C74.1768 52.231 74.2622 52.2275 74.3511 52.2207C74.5015 52.207 74.6792 52.1626 74.8843 52.0874C75.0415 52.0327 75.2876 51.9438 75.6226 51.8208C75.9575 51.6909 76.231 51.585 76.4429 51.5029V45.1045Z" fill="white"/>
<path d="M81.4263 47.3501C81.6177 46.0854 82.1201 45.0737 82.9336 44.3149C83.7539 43.5562 84.8306 43.1699 86.1636 43.1562H86.2046C87.5513 43.1562 88.5801 43.5391 89.291 44.3047C90.002 45.084 90.3574 46.0991 90.3574 47.3501C90.3506 47.6235 90.3403 47.8184 90.3267 47.9346C90.313 48.0439 90.1729 48.0986 89.9062 48.0986H83.3745C83.395 49.2061 83.6753 50.1255 84.2153 50.8569C84.7554 51.5815 85.4355 52.0259 86.2559 52.1899C86.4951 52.2446 86.7378 52.272 86.9839 52.272C87.6333 52.272 88.3066 52.084 89.0039 51.708C89.3936 51.4961 89.6567 51.3901 89.7935 51.3901C89.8276 51.3901 89.855 51.397 89.8755 51.4106C89.896 51.4312 89.9062 51.4619 89.9062 51.5029C89.9062 51.5918 89.8618 51.7183 89.7729 51.8823C89.6909 52.0464 89.6226 52.1558 89.5679 52.2104C89.52 52.2651 89.4756 52.313 89.4346 52.354C88.6895 52.9966 87.6777 53.3179 86.3994 53.3179C84.6084 53.3042 83.2651 52.73 82.3696 51.5952C81.6792 50.7202 81.334 49.6812 81.334 48.478C81.334 48.1157 81.3647 47.7397 81.4263 47.3501ZM83.3745 47.3501H88.7783C88.7783 46.5161 88.5903 45.7505 88.2144 45.0532C87.8521 44.3901 87.189 44.0586 86.2251 44.0586H86.1123C85.1484 44.0859 84.458 44.4346 84.041 45.1045C83.624 45.7744 83.4019 46.5229 83.3745 47.3501Z" fill="white"/>
</svg>
