<svg width="161" height="70" viewBox="0 0 161 70" fill="none" xmlns="http://www.w3.org/2000/svg">
<path fill-rule="evenodd" clip-rule="evenodd" d="M104.959 0.873962C104.951 1.57022 104.924 1.77467 104.828 1.88061C104.728 1.98946 104.724 2.03342 104.801 2.12585C104.867 2.2045 104.88 2.36208 104.846 2.65076C104.819 2.87772 104.764 3.3968 104.724 3.80439C104.684 4.21171 104.603 4.95749 104.544 5.46147C104.485 5.96572 104.385 6.85637 104.322 7.44087C104.259 8.02563 104.174 8.76796 104.134 9.09054C104.094 9.41311 104.01 10.1388 103.948 10.7034C103.794 12.1031 103.642 13.477 103.508 14.6805C103.447 15.235 103.346 16.1503 103.286 16.7149C103.225 17.2793 103.159 17.8402 103.138 17.9613C103.118 18.082 103.052 18.6565 102.993 19.2372C102.873 20.4044 102.877 20.3954 102.256 20.8435C102.053 20.9905 101.718 21.2434 101.512 21.4055C101.306 21.5676 101.01 21.799 100.854 21.92C100.283 22.3626 100.265 22.3358 101.111 22.2959C101.84 22.2614 103.088 22.1799 105.132 22.0329C106.016 21.9693 106.016 21.9693 107.456 22.2945C108.248 22.4736 108.951 22.611 109.018 22.5999C109.138 22.58 108.937 22.3388 107.458 20.7179L106.978 20.1925L106.886 19.3702C106.835 18.9179 106.742 18.0362 106.679 17.4115C106.571 16.3399 106.491 15.5597 106.24 13.1227C106.182 12.5581 106.084 11.6015 106.023 10.9966C105.962 10.3917 105.845 9.29314 105.763 8.55504C105.681 7.81693 105.564 6.69535 105.504 6.06239C105.258 3.47599 105.171 2.63116 105.133 2.4749C105.112 2.38486 105.134 2.24661 105.184 2.16796C105.253 2.05726 105.254 1.98681 105.186 1.85545C105.138 1.76223 105.07 1.30671 105.034 0.842977L104.969 0L104.959 0.873962ZM102.873 23.4106L102.624 23.6325L102.646 24.936C102.671 26.471 102.585 26.305 103.323 26.2411L103.924 26.189L103.901 24.8812C103.88 23.6873 103.866 23.5604 103.731 23.4264C103.465 23.1632 103.157 23.1574 102.873 23.4106ZM107.281 23.7501C107.184 23.8981 107.162 24.15 107.162 25.1346C107.162 26.4821 107.137 26.4252 107.739 26.4276L107.983 26.4286L107.96 25.1029C107.939 23.8902 107.925 23.7683 107.794 23.6735C107.584 23.521 107.416 23.5461 107.281 23.7501ZM102.817 28.6708C102.595 28.9512 102.566 29.1091 102.695 29.3553C103.019 29.9772 103.875 29.7704 103.875 29.0701C103.875 28.5179 103.153 28.2454 102.817 28.6708ZM107.265 28.8861C107.044 29.2219 107.275 29.8742 107.615 29.8742C107.941 29.8742 108.088 29.1244 107.824 28.8085C107.683 28.6398 107.402 28.679 107.265 28.8861ZM95.9456 29.22C94.9918 29.2502 92.2737 29.3273 89.9051 29.3916C87.5366 29.456 85.5689 29.527 85.5321 29.5495C85.4727 29.586 85.0736 30.1777 84.3981 31.2304C84.2685 31.4322 83.9332 31.9497 83.6525 32.3803C83.372 32.8112 83.0545 33.3062 82.9473 33.4802C82.8402 33.6542 82.552 34.0779 81.9986 35.471C81.8142 35.8888 81.5323 36.4563 81.3914 36.8444C81.2505 37.16 81.5221 36.6379 81.1095 37.462C80.9686 37.7435 80.5458 38.5676 80.5458 38.5676C80.1403 39.1958 80.1288 39.4899 80.1288 39.9303L83.8028 39.9912C84.9483 39.9912 87.8277 40.0129 90.2016 40.0397L94.5181 40.0881L96.0288 37.8222C96.8597 36.5756 97.8368 35.1042 98.2001 34.5517L98.8604 33.5477L99.3395 33.5255C99.89 33.4998 99.8084 33.5988 100.35 32.2995L100.668 31.5358V29.1411L99.1742 29.1533C98.3523 29.1602 96.8994 29.1901 95.9456 29.22ZM130.466 29.9621C130.285 30.2566 130.033 30.6623 129.908 30.8639C129.782 31.0657 129.471 31.5707 129.217 31.9865C128.963 32.402 128.729 32.7588 128.696 32.7789C128.601 32.8372 128.627 32.9534 128.735 32.9534C128.79 32.9534 128.974 32.7371 129.145 32.4727C129.316 32.2084 129.792 31.4793 130.203 30.8522L130.951 29.7121L131.104 29.9195C131.187 30.0336 131.468 30.4576 131.727 30.862C131.986 31.2664 132.338 31.8115 132.508 32.0736C132.679 32.3356 133.326 33.3419 133.947 34.3097C135.273 36.3772 135.383 36.5465 136.084 37.6204L136.618 38.4387L137.295 38.4787C138.321 38.5394 144.064 38.6911 144.097 38.6586C144.113 38.6429 143.95 38.3672 143.735 38.046C143.52 37.7247 143.128 37.132 142.864 36.7289C142.6 36.3256 142.102 35.5668 141.757 35.0427C141.412 34.5186 140.909 33.7514 140.639 33.3382C140.106 32.5215 139.462 31.5373 138.707 30.3842C138.127 29.4989 138.465 29.6022 135.965 29.5458L133.884 29.4986H133.032C133.032 29.4986 132.714 29.5124 131.875 29.4748L130.797 29.4266L130.466 29.9621ZM115.833 32.8856C114.775 32.9614 112.817 33.0811 110.52 33.2103C109.505 33.2675 108.127 33.3483 107.457 33.3899C106.788 33.4315 105.393 33.5159 104.358 33.5777C100.793 33.7903 99.0081 33.9203 98.9892 33.9683C98.9788 33.9948 98.7434 34.3626 98.4661 34.7861C98.1889 35.2096 97.4041 36.4135 96.7219 37.462C95.3306 39.6003 94.8294 40.3678 94.3101 41.156C93.858 41.8422 93.8591 41.8528 94.3776 41.799C94.6108 41.7746 95.7481 41.7201 96.905 41.6777C98.0617 41.6353 99.6722 41.5691 100.484 41.5304C101.296 41.4918 102.989 41.425 104.248 41.3824C106.487 41.3061 108.489 41.1981 108.521 41.1512C108.605 41.0286 109.899 38.9229 110.599 37.7698L111.479 36.3179L112.18 36.364C112.566 36.3894 113.247 36.4567 113.693 36.5139C114.982 36.6786 114.911 36.6982 114.911 36.1791V35.7392H115.655L116.282 34.4511C116.982 33.0112 116.958 33.0284 117.333 33.7008C118.015 34.9259 119.159 36.8381 119.21 36.8386C119.294 36.8391 119.104 36.4228 118.633 35.5788C118.21 34.8213 118.054 34.5374 117.441 33.4116C117.065 32.7225 117.253 32.7839 115.833 32.8856ZM122.358 32.9272C122.046 33.2906 120.071 36.6545 120.091 36.788C120.107 36.8945 120.259 36.708 120.625 36.1365C120.906 35.6961 121.375 34.9702 121.667 34.5234C121.959 34.0763 122.277 33.5734 122.373 33.4058C122.628 32.9632 122.539 32.888 123.483 34.3462C123.81 34.8502 124.297 35.5999 124.567 36.012C124.837 36.4241 125.317 37.1582 125.635 37.6432L126.211 38.5251L127.11 38.5264C127.605 38.5272 129.105 38.5759 130.445 38.6347C132.956 38.7452 134.688 38.7743 134.688 38.706C134.688 38.6845 134.511 38.4289 134.295 38.1379C133.705 37.3418 132.557 35.7795 132.063 35.0994C131.822 34.7678 131.448 34.2527 131.231 33.9548L130.836 33.4132L130.308 33.3682C128.672 33.2278 127.123 33.1015 126.978 33.1015H126.692L126.427 33.0244H125.994C125.994 33.0244 125.877 33.0265 125.618 33.0244C125.313 33.022 123.665 32.9066 122.954 32.8377C122.542 32.798 122.458 32.8107 122.358 32.9272ZM112.107 36.7324C112.107 36.7671 112.762 37.7306 113.838 39.2754C114.083 39.6276 114.765 40.6101 115.354 41.4589C115.942 42.3075 116.674 43.3554 116.979 43.7877L117.535 44.5732L118.086 44.6195C118.389 44.6452 118.96 44.6868 119.354 44.7125L120.07 44.7591L119.698 43.933C119.493 43.4786 119.1 42.5956 118.824 41.9706C118.548 41.3456 118.202 40.5757 118.055 40.2598C117.694 39.4838 117.482 39.5804 119.947 39.3969C120.586 39.3495 121.109 39.2828 121.109 39.2489C121.109 38.997 120.123 37.9385 119.888 37.9385C119.666 37.9385 119.493 37.7976 119.377 37.5211C119.364 37.4888 118.353 37.3489 117.383 37.2451C116.815 37.1845 116.225 37.1132 116.073 37.087L115.796 37.0396V37.654L115.52 37.6312C115.276 37.6114 115.226 37.5725 115.101 37.306C114.943 36.9681 115.114 37.0166 113.472 36.8444C113.066 36.8018 112.593 36.7507 112.42 36.7311C112.248 36.7112 112.107 36.712 112.107 36.7324ZM122.954 39.4361C122.954 39.4938 122.842 39.8816 122.705 40.2976C122.568 40.7137 122.283 41.5985 122.071 42.2638C121.86 42.929 121.633 43.6285 121.567 43.8181C121.5 44.0075 121.466 44.1823 121.491 44.2066C121.536 44.2514 125.986 44.4818 126.026 44.4413C126.039 44.4291 125.723 43.86 125.325 43.1767C124.927 42.4931 124.26 41.3485 123.844 40.6326C123.138 39.4205 122.954 39.1737 122.954 39.4361ZM133.24 40.4128C133.089 40.6848 132.755 41.2651 132.498 41.7018C132.241 42.1388 132.031 42.508 132.031 42.5225C132.031 42.5374 131.912 42.7513 131.766 42.9984C131.62 43.2455 131.512 43.4577 131.526 43.4699C131.54 43.4818 133.561 43.5151 136.017 43.544L140.483 43.5964L140.639 43.3149C140.724 43.1603 141.02 42.6049 141.296 42.0805C142.018 40.7089 142.194 40.4009 142.263 40.381C142.298 40.3713 142.691 40.9587 143.137 41.6867C144.039 43.1579 144.172 43.3488 144.243 43.2784C144.289 43.2331 144.023 42.7079 143.655 42.1173C143.567 41.9762 143.36 41.6133 143.196 41.3109C143.032 41.0085 142.8 40.5961 142.68 40.3946L142.463 40.0278L140.402 39.9827C139.268 39.9581 137.255 39.9332 135.927 39.9279L133.514 39.9179L133.24 40.4128Z" fill="#F88906"/>
<path d="M4.18937 68.0474H10.5554C11.4798 68.0474 12.26 67.6946 12.8961 66.9891C13.5421 66.2736 14.0292 65.7171 14.3572 65.3196C14.5361 65.101 14.6752 64.9917 14.7746 64.9917C14.9833 64.9917 15.0877 65.096 15.0877 65.3047C15.0877 65.4339 15.0778 65.5382 15.0579 65.6177L13.9695 69.4485H0.313085C0.104362 69.4485 0 69.3442 0 69.1355C0 68.887 0.24848 68.6784 0.745439 68.5094C1.2424 68.3306 1.49088 67.9182 1.49088 67.2723V50.7121C1.49088 50.0761 1.2424 49.6687 0.745439 49.4898C0.24848 49.3109 0 49.0923 0 48.834C0 48.6253 0.104362 48.5209 0.313085 48.5209H5.36716C5.56595 48.5209 5.66534 48.6253 5.66534 48.834C5.66534 49.0923 5.41686 49.3109 4.9199 49.4898C4.42294 49.6687 4.17446 50.0761 4.17446 50.7121L4.18937 68.0474Z" fill="black"/>
<path d="M28.2372 68.1517L24.1373 69.6572C23.8193 69.7665 23.5559 69.8211 23.3472 69.8211H22.7359C21.3245 69.7516 20.107 69.1752 19.0832 68.0921C18.0595 67.0089 17.4781 65.6774 17.3389 64.0974C17.2992 63.68 17.2793 63.2775 17.2793 62.89C17.2793 62.3733 17.3141 61.8714 17.3836 61.3845C17.5029 60.5399 17.8309 59.6952 18.3676 58.8506C18.626 58.4133 19.0683 57.9562 19.6945 57.4792C19.9132 57.3302 20.1567 57.196 20.425 57.0768C21.2202 56.7787 22.0153 56.4806 22.8104 56.1824C23.6155 55.8843 24.4206 55.5862 25.2257 55.2881C25.3946 55.2285 25.5537 55.1987 25.7027 55.1987H25.7773C26.4134 55.2285 27.1837 55.3875 28.0882 55.6757C28.1677 55.7055 28.2174 55.7253 28.2372 55.7353C28.4559 55.8247 28.7243 55.9241 29.0423 56.0334C29.1715 56.0731 29.2908 56.093 29.4001 56.093C29.5592 56.093 29.6983 56.0483 29.8176 55.9589C30.0263 55.78 30.1754 55.6309 30.2648 55.5117C30.3145 55.4421 30.3791 55.4074 30.4587 55.4074C30.5083 55.4074 30.558 55.4173 30.6077 55.4372C30.8264 55.5167 30.9357 55.616 30.9357 55.7353V67.2723C30.9357 67.9182 31.1842 68.3306 31.6812 68.5094C32.1781 68.6784 32.4266 68.887 32.4266 69.1355C32.4266 69.3442 32.3223 69.4485 32.1135 69.4485H28.4907C28.3217 69.4485 28.2372 69.3839 28.2372 69.2547V68.1517ZM28.2372 57.986C27.8297 57.6084 27.293 57.2606 26.6271 56.9426C25.9612 56.6147 25.3698 56.4408 24.8529 56.4209H24.7933C24.5945 56.4209 24.3957 56.4607 24.197 56.5402C23.8392 56.6694 23.4813 56.8035 23.1235 56.9426C22.7757 57.0718 22.4228 57.201 22.065 57.3302C21.8165 57.4296 21.6177 57.5587 21.4687 57.7177C20.8524 58.3736 20.4399 59.1685 20.2312 60.1026C20.0623 60.8082 19.9778 61.5087 19.9778 62.2043C19.9778 62.423 19.9877 62.6465 20.0076 62.8751C20.1169 64.306 20.5046 65.4687 21.1705 66.363C21.8364 67.2872 22.6713 67.8884 23.6752 68.1666C24.0528 68.2759 24.4355 68.3306 24.8231 68.3306C24.9424 68.3306 25.0666 68.3256 25.1959 68.3157C25.4145 68.2958 25.6729 68.2312 25.9711 68.1219C26.1997 68.0424 26.5575 67.9132 27.0445 67.7343C27.5316 67.5455 27.9291 67.3915 28.2372 67.2723V57.986Z" fill="black"/>
<path d="M54.432 70C51.3807 70 48.6772 69.0262 46.3216 67.0785C43.966 65.1308 42.7882 62.4379 42.7882 58.9996C42.7882 55.6508 43.9312 52.9678 46.2172 50.9506C48.5132 48.9234 51.2514 47.9098 54.432 47.9098C55.575 47.9098 56.7876 48.039 58.0697 48.2973C59.3618 48.5458 60.5893 49.0426 61.7522 49.7879L61.3944 52.9181C61.3546 53.097 61.2552 53.1864 61.0962 53.1864H61.0515C60.9322 53.1765 60.803 53.0374 60.6639 52.769C60.0874 51.5269 59.2227 50.6127 58.0697 50.0264C56.9963 49.4997 55.8533 49.2364 54.6407 49.2364H54.3276C51.644 49.3557 49.5469 50.4289 48.0361 52.456C46.6744 54.2745 45.9936 56.2868 45.9936 58.4928C45.9936 58.7413 46.0035 58.9897 46.0234 59.2381C46.1626 61.5236 46.9677 63.6055 48.4387 65.4836C49.9097 67.3617 51.9074 68.3604 54.432 68.4796C54.6705 68.4896 54.8991 68.4945 55.1178 68.4945C56.39 68.4945 57.4386 68.3008 58.2635 67.9132C59.2177 67.4561 60.0178 66.5369 60.6639 65.1557C60.7931 64.8774 60.9521 64.7383 61.1409 64.7383C61.1807 64.7383 61.2205 64.7433 61.2602 64.7532C61.4192 64.8128 61.4987 64.9271 61.4987 65.096C61.4987 65.1755 61.4789 65.265 61.4391 65.3643L60.142 68.9864C59.1879 69.3839 58.2188 69.6522 57.2348 69.7913C56.2509 69.9304 55.3166 70 54.432 70Z" fill="black"/>
<path d="M71.3535 55.1987C73.2916 55.2782 74.9316 56.0284 76.2734 57.4494C77.6151 58.8605 78.301 60.5498 78.3308 62.5174V62.6068C78.3308 64.5942 77.6301 66.2736 76.2286 67.6449C74.7974 69.0361 73.0531 69.7615 70.9956 69.8211H70.7571C68.8488 69.8211 67.2038 69.1156 65.8223 67.7045C64.3911 66.2537 63.6754 64.5396 63.6754 62.5621V62.5174C63.6854 60.3411 64.5054 58.5127 66.1354 57.0321C66.3242 56.8532 66.6025 56.6992 66.9703 56.57C67.348 56.4408 67.9046 56.2421 68.6401 55.9738C69.0774 55.8148 69.5594 55.6409 70.0862 55.4521C70.5832 55.2831 70.9907 55.1987 71.3087 55.1987H71.3535ZM71.0404 56.1974H70.8615C69.6986 56.1974 68.6997 56.7588 67.8648 57.8817C66.9802 59.0741 66.5379 60.5399 66.5379 62.2789C66.5379 64.0179 66.9703 65.5283 67.835 66.8102C68.7096 68.0821 69.7682 68.7479 71.0106 68.8075H71.2193C72.3722 68.8075 73.3661 68.2461 74.201 67.1232C75.0757 65.9407 75.513 64.4799 75.513 62.7409C75.513 61.0019 75.0757 59.4965 74.201 58.2245C73.3264 56.9426 72.2728 56.2669 71.0404 56.1974Z" fill="black"/>
<path d="M94.7752 67.2723C94.7752 67.9182 95.0236 68.3306 95.5206 68.5094C96.0176 68.6784 96.266 68.887 96.266 69.1355C96.266 69.3442 96.1617 69.4485 95.953 69.4485H92.3301C92.1612 69.4485 92.0767 69.3839 92.0767 69.2547V68.2858C91.53 68.4945 91.043 68.6833 90.6156 68.8523C90.1982 69.0113 89.8105 69.1504 89.4527 69.2696C88.5284 69.5777 87.5792 69.7814 86.6051 69.8808C86.466 69.8907 86.3318 69.8957 86.2026 69.8957C85.3777 69.8957 84.5925 69.6174 83.847 69.0609C82.6344 68.1467 82.0281 66.1643 82.0281 63.1136V57.7326C82.0281 57.1066 81.7797 56.7041 81.2827 56.5253C80.7858 56.3464 80.5373 56.1278 80.5373 55.8694C80.5373 55.6607 80.6416 55.5564 80.8504 55.5564C81.5063 55.5266 82.1524 55.4272 82.7885 55.2583C83.4345 55.0794 84.0806 54.8807 84.7266 54.6621V63.1136C84.7266 65.2997 85.1789 66.8301 86.0833 67.7045C86.6598 68.2709 87.3655 68.5542 88.2004 68.5542C88.6775 68.5542 89.1993 68.4597 89.7658 68.2709C89.9745 68.2014 90.2479 68.102 90.5858 67.9728C90.9237 67.8436 91.212 67.7343 91.4505 67.6449C91.5002 67.625 91.5797 67.5952 91.689 67.5555C91.8083 67.5157 91.9375 67.466 92.0767 67.4064V57.7326C92.0767 57.1066 91.8282 56.7041 91.3312 56.5253C90.8343 56.3464 90.5858 56.1278 90.5858 55.8694C90.5858 55.6607 90.6902 55.5564 90.8989 55.5564C91.5549 55.5266 92.2009 55.4272 92.837 55.2583C93.4831 55.0794 94.1291 54.8807 94.7752 54.6621V67.2723Z" fill="black"/>
<path d="M103.765 60.5796V67.2723C103.765 67.9182 104.009 68.3306 104.496 68.5094C104.993 68.6784 105.241 68.887 105.241 69.1355C105.241 69.3442 105.142 69.4485 104.943 69.4485H99.8889C99.6802 69.4485 99.5758 69.3442 99.5758 69.1355C99.5758 68.887 99.8243 68.6784 100.321 68.5094C100.818 68.3306 101.067 67.9182 101.067 67.2723V57.7326C101.067 57.1066 100.818 56.7041 100.321 56.5253C99.8243 56.3464 99.5758 56.1278 99.5758 55.8694C99.5758 55.6607 99.6802 55.5564 99.8889 55.5564C100.545 55.5266 101.191 55.4272 101.827 55.2583C102.473 55.0794 103.119 54.8807 103.765 54.6621V56.6296L105.837 55.8396C106.603 55.5514 107.199 55.3378 107.627 55.1987C107.756 55.1589 107.91 55.1391 108.089 55.1391C108.456 55.1391 108.924 55.2384 109.49 55.4372L109.162 59.1785H108.476C108.089 57.7277 107.343 57.0023 106.24 57.0023C106.131 57.0023 106.021 57.0072 105.912 57.0172C105.157 57.1066 104.615 57.4941 104.287 58.1798C103.969 58.8555 103.795 59.6555 103.765 60.5796Z" fill="black"/>
<path d="M113.247 56.8532C112.869 56.8631 112.303 56.888 111.548 56.9277H111.473C111.284 56.9277 111.185 56.8284 111.175 56.6296V56.5998C111.175 56.4408 111.269 56.3166 111.458 56.2272C111.657 56.1377 112.069 55.9241 112.696 55.5862C112.845 55.5067 112.989 55.4372 113.128 55.3775C113.158 55.3676 113.197 55.3626 113.247 55.3626V52.8138C113.247 52.3169 113.347 51.9741 113.545 51.7853C113.754 51.5865 114.226 51.3133 114.962 50.9655C115.23 50.8363 115.444 50.7717 115.603 50.7717C115.831 50.7717 115.946 50.9009 115.946 51.1592V55.3179L119.494 55.2434H119.509C119.658 55.2434 119.732 55.3726 119.732 55.6309C119.732 55.7701 119.713 55.939 119.673 56.1377C119.573 56.6048 119.35 56.8383 119.002 56.8383L115.946 56.8234V66.1692C115.946 67.0735 116.259 67.7492 116.885 68.1964C117.521 68.6436 118.063 68.897 118.51 68.9566V69.4336C117.029 69.4336 115.782 69.2945 114.768 69.0162C113.754 68.738 113.247 67.6399 113.247 65.7221V56.8532Z" fill="black"/>
<path d="M124.831 48.5806C125.915 48.5806 126.456 49.1271 126.456 50.2202C126.456 51.3232 125.915 51.8747 124.831 51.8747C123.748 51.8747 123.206 51.3232 123.206 50.2202C123.206 49.1271 123.748 48.5806 124.831 48.5806ZM126.173 67.2723C126.173 67.9182 126.422 68.3306 126.919 68.5094C127.415 68.6784 127.664 68.887 127.664 69.1355C127.664 69.3442 127.565 69.4485 127.366 69.4485H122.312C122.103 69.4485 121.999 69.3442 121.999 69.1355C121.999 68.887 122.247 68.6784 122.744 68.5094C123.241 68.3306 123.489 67.9182 123.489 67.2723V57.7326C123.489 57.1066 123.241 56.7041 122.744 56.5253C122.247 56.3464 121.999 56.1278 121.999 55.8694C121.999 55.6607 122.103 55.5564 122.312 55.5564C122.968 55.5266 123.614 55.4272 124.25 55.2583C124.896 55.0794 125.537 54.8807 126.173 54.6621V67.2723Z" fill="black"/>
<path d="M134.582 56.734C135.128 56.5253 135.61 56.3414 136.028 56.1824C136.445 56.0235 136.843 55.8794 137.22 55.7502C138.135 55.4322 139.084 55.2235 140.068 55.1241C140.187 55.1142 140.312 55.1092 140.441 55.1092C141.276 55.1092 142.071 55.3924 142.826 55.9589C144.029 56.883 144.63 58.8655 144.63 61.9062V67.2723C144.63 67.9182 144.879 68.3306 145.376 68.5094C145.873 68.6784 146.121 68.887 146.121 69.1355C146.121 69.3442 146.022 69.4485 145.823 69.4485H142.2C142.031 69.4485 141.947 69.3839 141.947 69.2547V61.9062C141.947 59.73 141.494 58.1997 140.59 57.3153C140.013 56.7489 139.308 56.4657 138.473 56.4657C137.996 56.4657 137.474 56.5601 136.907 56.7489C136.689 56.8284 136.41 56.9327 136.073 57.0619C135.745 57.1811 135.461 57.2855 135.223 57.3749C134.984 57.4643 134.77 57.5438 134.582 57.6134V67.2723C134.582 67.9182 134.83 68.3306 135.327 68.5094C135.824 68.6784 136.073 68.887 136.073 69.1355C136.073 69.3442 135.973 69.4485 135.774 69.4485H130.72C130.512 69.4485 130.407 69.3442 130.407 69.1355C130.407 68.887 130.656 68.6784 131.153 68.5094C131.65 68.3306 131.898 67.9182 131.898 67.2723V57.7326C131.898 57.1066 131.65 56.7041 131.153 56.5253C130.656 56.3464 130.407 56.1278 130.407 55.8694C130.407 55.6607 130.512 55.5564 130.72 55.5564C131.376 55.5266 132.022 55.4272 132.658 55.2583C133.304 55.0794 133.946 54.8807 134.582 54.6621V56.734Z" fill="black"/>
<path d="M148.014 61.2355C148.293 59.3971 149.023 57.9264 150.206 56.8234C151.399 55.7204 152.964 55.1589 154.902 55.1391H154.962C156.92 55.1391 158.416 55.6955 159.449 56.8085C160.483 57.9413 161 59.417 161 61.2355C160.99 61.633 160.975 61.9162 160.955 62.0851C160.935 62.2441 160.732 62.3236 160.344 62.3236H150.847C150.877 63.9334 151.284 65.2699 152.07 66.3332C152.855 67.3865 153.844 68.0325 155.036 68.2709C155.384 68.3504 155.737 68.3902 156.095 68.3902C157.039 68.3902 158.018 68.1169 159.032 67.5704C159.599 67.2623 159.981 67.1083 160.18 67.1083C160.23 67.1083 160.269 67.1182 160.299 67.1381C160.329 67.1679 160.344 67.2126 160.344 67.2723C160.344 67.4014 160.279 67.5853 160.15 67.8238C160.031 68.0623 159.932 68.2213 159.852 68.3008C159.782 68.3803 159.718 68.4498 159.658 68.5094C158.575 69.4435 157.104 69.9106 155.245 69.9106C152.641 69.8907 150.688 69.056 149.386 67.4064C148.382 66.1345 147.88 64.624 147.88 62.8751C147.88 62.3484 147.925 61.8019 148.014 61.2355ZM150.847 61.2355H158.704C158.704 60.0231 158.431 58.9102 157.884 57.8966C157.357 56.9327 156.393 56.4507 154.992 56.4507H154.828C153.426 56.4905 152.422 56.9973 151.816 57.9711C151.21 58.945 150.887 60.0331 150.847 61.2355Z" fill="black"/>
<path d="M13.2617 30.6114V39.3055C13.2617 39.6446 13.3922 39.8611 13.6531 39.955C13.9192 40.0437 14.0523 40.1533 14.0523 40.2837C14.0523 40.3932 13.9975 40.448 13.8879 40.448H11.2345C11.1249 40.448 11.0701 40.3932 11.0701 40.2837C11.0701 40.1533 11.2006 40.0437 11.4615 39.955C11.7224 39.8611 11.8529 39.6446 11.8529 39.3055V30.9244L7.33661 40.6828H7.03136L2.56208 31.2922V39.3055C2.56208 39.6446 2.69253 39.8611 2.95343 39.955C3.21433 40.0437 3.34479 40.1533 3.34479 40.2837C3.34479 40.3932 3.29 40.448 3.18042 40.448H1.19233C1.08275 40.448 1.02796 40.3932 1.02796 40.2837C1.02796 40.1533 1.15841 40.0437 1.41932 39.955C1.68022 39.8611 1.81067 39.6446 1.81067 39.3055V30.6114C1.81067 30.2775 1.68022 30.0636 1.41932 29.9697C1.15841 29.8758 1.02796 29.761 1.02796 29.6254C1.02796 29.5158 1.08275 29.4611 1.19233 29.4611H3.27434L7.55577 38.2412L11.7041 29.4611H13.8879C13.9975 29.4611 14.0523 29.5158 14.0523 29.6254C14.0523 29.761 13.9192 29.8758 13.6531 29.9697C13.3922 30.0636 13.2617 30.2775 13.2617 30.6114Z" fill="black"/>
<path d="M21.1515 39.7672L18.999 40.5576C18.832 40.615 18.6938 40.6437 18.5842 40.6437H18.2633C17.5223 40.6071 16.8831 40.3046 16.3456 39.7359C15.8082 39.1673 15.5029 38.4682 15.4298 37.6387C15.409 37.4196 15.3985 37.2083 15.3985 37.0048C15.3985 36.7335 15.4168 36.4701 15.4533 36.2144C15.5159 35.771 15.6881 35.3276 15.9699 34.8841C16.1056 34.6546 16.3378 34.4146 16.6665 34.1642C16.7813 34.0859 16.9092 34.0155 17.0501 33.9529C17.4675 33.7964 17.885 33.6399 18.3024 33.4833C18.7251 33.3268 19.1477 33.1703 19.5704 33.0138C19.6591 32.9825 19.7426 32.9669 19.8209 32.9669H19.86C20.194 32.9825 20.5984 33.066 21.0732 33.2173C21.1149 33.2329 21.141 33.2434 21.1515 33.2486C21.2663 33.2955 21.4072 33.3477 21.5741 33.4051C21.642 33.426 21.7046 33.4364 21.762 33.4364C21.8455 33.4364 21.9185 33.4129 21.9811 33.366C22.0907 33.2721 22.169 33.1938 22.216 33.1312C22.242 33.0947 22.276 33.0764 22.3177 33.0764C22.3438 33.0764 22.3699 33.0816 22.396 33.0921C22.5108 33.1338 22.5682 33.186 22.5682 33.2486V39.3055C22.5682 39.6446 22.6986 39.8611 22.9595 39.955C23.2204 40.0437 23.3509 40.1533 23.3509 40.2837C23.3509 40.3932 23.2961 40.448 23.1865 40.448H21.2845C21.1958 40.448 21.1515 40.4141 21.1515 40.3463V39.7672ZM21.1515 34.4302C20.9375 34.232 20.6558 34.0494 20.3061 33.8824C19.9565 33.7103 19.6461 33.619 19.3747 33.6086H19.3434C19.239 33.6086 19.1347 33.6294 19.0303 33.6712C18.8425 33.739 18.6546 33.8094 18.4668 33.8824C18.2841 33.9503 18.0989 34.0181 17.911 34.0859C17.7806 34.1381 17.6762 34.2059 17.598 34.2894C17.2744 34.6337 17.0579 35.0511 16.9483 35.5414C16.8596 35.9119 16.8152 36.2797 16.8152 36.6448C16.8152 36.7596 16.8205 36.877 16.8309 36.997C16.8883 37.7482 17.0918 38.3586 17.4414 38.8281C17.791 39.3133 18.2293 39.629 18.7564 39.775C18.9547 39.8324 19.1556 39.8611 19.3591 39.8611C19.4217 39.8611 19.4869 39.8585 19.5547 39.8533C19.6695 39.8429 19.8052 39.8089 19.9617 39.7516C20.0818 39.7098 20.2696 39.642 20.5253 39.5481C20.781 39.449 20.9897 39.3681 21.1515 39.3055V34.4302Z" fill="black"/>
<path d="M26.3252 29.4924C26.894 29.4924 27.1783 29.7793 27.1783 30.3532C27.1783 30.9322 26.894 31.2218 26.3252 31.2218C25.7564 31.2218 25.472 30.9322 25.472 30.3532C25.472 29.7793 25.7564 29.4924 26.3252 29.4924ZM27.0296 39.3055C27.0296 39.6446 27.1601 39.8611 27.421 39.955C27.6819 40.0437 27.8123 40.1533 27.8123 40.2837C27.8123 40.3932 27.7602 40.448 27.6558 40.448H25.0024C24.8928 40.448 24.838 40.3932 24.838 40.2837C24.838 40.1533 24.9685 40.0437 25.2294 39.955C25.4903 39.8611 25.6208 39.6446 25.6208 39.3055V34.2972C25.6208 33.9685 25.4903 33.7572 25.2294 33.6633C24.9685 33.5694 24.838 33.4547 24.838 33.319C24.838 33.2095 24.8928 33.1547 25.0024 33.1547C25.3468 33.139 25.686 33.0869 26.0199 32.9982C26.3591 32.9043 26.6957 32.7999 27.0296 32.6852V39.3055Z" fill="black"/>
<path d="M31.765 35.7919V39.3055C31.765 39.6446 31.8929 39.8611 32.1486 39.955C32.4095 40.0437 32.5399 40.1533 32.5399 40.2837C32.5399 40.3932 32.4877 40.448 32.3834 40.448H29.73C29.6204 40.448 29.5656 40.3932 29.5656 40.2837C29.5656 40.1533 29.6961 40.0437 29.957 39.955C30.2179 39.8611 30.3483 39.6446 30.3483 39.3055V34.2972C30.3483 33.9685 30.2179 33.7572 29.957 33.6633C29.6961 33.5694 29.5656 33.4547 29.5656 33.319C29.5656 33.2095 29.6204 33.1547 29.73 33.1547C30.0744 33.139 30.4136 33.0869 30.7475 32.9982C31.0867 32.9043 31.4259 32.7999 31.765 32.6852V33.7181L32.853 33.3034C33.2548 33.1521 33.5679 33.0399 33.7923 32.9669C33.8601 32.946 33.941 32.9356 34.0349 32.9356C34.228 32.9356 34.4732 32.9877 34.7706 33.0921L34.5985 35.0563H34.2384C34.0349 34.2946 33.6435 33.9138 33.0643 33.9138C33.0069 33.9138 32.9495 33.9164 32.8921 33.9216C32.4956 33.9685 32.2112 34.172 32.039 34.532C31.872 34.8867 31.7807 35.3067 31.765 35.7919Z" fill="black"/>
<path d="M37.4867 29.4924C38.0554 29.4924 38.3398 29.7793 38.3398 30.3532C38.3398 30.9322 38.0554 31.2218 37.4867 31.2218C36.9179 31.2218 36.6335 30.9322 36.6335 30.3532C36.6335 29.7793 36.9179 29.4924 37.4867 29.4924ZM38.1911 39.3055C38.1911 39.6446 38.3215 39.8611 38.5825 39.955C38.8434 40.0437 38.9738 40.1533 38.9738 40.2837C38.9738 40.3932 38.9216 40.448 38.8173 40.448H36.1639C36.0543 40.448 35.9995 40.3932 35.9995 40.2837C35.9995 40.1533 36.13 40.0437 36.3909 39.955C36.6518 39.8611 36.7822 39.6446 36.7822 39.3055V34.2972C36.7822 33.9685 36.6518 33.7572 36.3909 33.6633C36.13 33.5694 35.9995 33.4547 35.9995 33.319C35.9995 33.2095 36.0543 33.1547 36.1639 33.1547C36.5083 33.139 36.8474 33.0869 37.1814 32.9982C37.5206 32.9043 37.8571 32.7999 38.1911 32.6852V39.3055Z" fill="black"/>
<path d="M40.3279 36.1362C40.474 35.171 40.8575 34.3989 41.4785 33.8198C42.1047 33.2408 42.9265 32.946 43.944 32.9356H43.9753C45.0033 32.9356 45.7886 33.2277 46.3313 33.812C46.874 34.4068 47.1453 35.1815 47.1453 36.1362C47.1401 36.3449 47.1323 36.4935 47.1218 36.5822C47.1114 36.6657 47.0044 36.7074 46.8009 36.7074H41.815C41.8307 37.5526 42.0446 38.2543 42.4569 38.8125C42.8691 39.3655 43.3883 39.7046 44.0145 39.8298C44.1971 39.8715 44.3823 39.8924 44.5702 39.8924C45.0659 39.8924 45.5799 39.7489 46.1121 39.462C46.4096 39.3003 46.6105 39.2194 46.7148 39.2194C46.7409 39.2194 46.7618 39.2246 46.7774 39.2351C46.7931 39.2507 46.8009 39.2742 46.8009 39.3055C46.8009 39.3733 46.767 39.4698 46.6992 39.595C46.6366 39.7203 46.5844 39.8037 46.5426 39.8455C46.5061 39.8872 46.4722 39.9237 46.4409 39.955C45.8721 40.4454 45.0998 40.6906 44.124 40.6906C42.7569 40.6802 41.7316 40.242 41.048 39.3759C40.521 38.7082 40.2575 37.9152 40.2575 36.997C40.2575 36.7205 40.2809 36.4336 40.3279 36.1362ZM41.815 36.1362H45.9399C45.9399 35.4997 45.7964 34.9154 45.5094 34.3833C45.2329 33.8772 44.7267 33.6242 43.991 33.6242H43.9049C43.1691 33.6451 42.6421 33.9111 42.3238 34.4224C42.0055 34.9337 41.8359 35.5049 41.815 36.1362Z" fill="black"/>
<path d="M58.3303 39.7672L56.1778 40.5576C56.0108 40.615 55.8725 40.6437 55.763 40.6437H55.4421C54.7011 40.6071 54.0619 40.3046 53.5244 39.7359C52.9869 39.1673 52.6817 38.4682 52.6086 37.6387C52.5878 37.4196 52.5773 37.2083 52.5773 37.0048C52.5773 36.7335 52.5956 36.4701 52.6321 36.2144C52.6947 35.771 52.8669 35.3276 53.1487 34.8841C53.2844 34.6546 53.5166 34.4146 53.8453 34.1642C53.9601 34.0859 54.088 34.0155 54.2289 33.9529C54.6463 33.7964 55.0637 33.6399 55.4812 33.4833C55.9039 33.3268 56.3265 33.1703 56.7492 33.0138C56.8379 32.9825 56.9214 32.9669 56.9996 32.9669H57.0388C57.3727 32.9825 57.7771 33.066 58.252 33.2173C58.2937 33.2329 58.3198 33.2434 58.3303 33.2486V30.6114C58.3303 30.2775 58.1998 30.0636 57.9389 29.9697C57.678 29.8758 57.5475 29.761 57.5475 29.6254C57.5475 29.5158 57.6023 29.4611 57.7119 29.4611C58.0563 29.4454 58.3955 29.3932 58.7294 29.3045C59.0686 29.2159 59.4078 29.1141 59.747 28.9994V39.3055C59.747 39.6446 59.8774 39.8611 60.1383 39.955C60.3992 40.0437 60.5297 40.1533 60.5297 40.2837C60.5297 40.3932 60.4749 40.448 60.3653 40.448H58.4633C58.3746 40.448 58.3303 40.4141 58.3303 40.3463V39.7672ZM58.3303 34.4224C58.0954 34.2085 57.8058 34.0233 57.4614 33.8668C57.1223 33.7051 56.8196 33.619 56.5535 33.6086H56.5222C56.4178 33.6086 56.3135 33.6294 56.2091 33.6712C56.0213 33.739 55.8334 33.8094 55.6456 33.8824C55.4629 33.9503 55.2777 34.0181 55.0898 34.0859C54.9594 34.1381 54.855 34.2059 54.7767 34.2894C54.4532 34.6337 54.2367 35.0511 54.1271 35.5414C54.0384 35.9119 53.994 36.2797 53.994 36.6448C53.994 36.7596 53.9993 36.877 54.0097 36.997C54.0671 37.7482 54.2706 38.3586 54.6202 38.8281C54.9698 39.3133 55.4081 39.629 55.9352 39.775C56.1334 39.8324 56.3343 39.8611 56.5378 39.8611C56.6005 39.8611 56.6657 39.8585 56.7335 39.8533C56.8483 39.8429 56.984 39.8089 57.1405 39.7516C57.2606 39.7098 57.4484 39.642 57.7041 39.5481C57.9598 39.449 58.1685 39.3681 58.3303 39.3055V34.4224Z" fill="black"/>
<path d="M62.1342 36.1362C62.2803 35.171 62.6639 34.3989 63.2848 33.8198C63.911 33.2408 64.7328 32.946 65.7504 32.9356H65.7817C66.8096 32.9356 67.595 33.2277 68.1376 33.812C68.6803 34.4068 68.9517 35.1815 68.9517 36.1362C68.9464 36.3449 68.9386 36.4935 68.9282 36.5822C68.9177 36.6657 68.8108 36.7074 68.6073 36.7074H63.6214C63.637 37.5526 63.851 38.2543 64.2632 38.8125C64.6754 39.3655 65.1946 39.7046 65.8208 39.8298C66.0034 39.8715 66.1887 39.8924 66.3765 39.8924C66.8722 39.8924 67.3862 39.7489 67.9185 39.462C68.2159 39.3003 68.4168 39.2194 68.5212 39.2194C68.5473 39.2194 68.5681 39.2246 68.5838 39.2351C68.5994 39.2507 68.6073 39.2742 68.6073 39.3055C68.6073 39.3733 68.5733 39.4698 68.5055 39.595C68.4429 39.7203 68.3907 39.8037 68.349 39.8455C68.3124 39.8872 68.2785 39.9237 68.2472 39.955C67.6784 40.4454 66.9062 40.6906 65.9304 40.6906C64.5632 40.6802 63.5379 40.242 62.8543 39.3759C62.3273 38.7082 62.0638 37.9152 62.0638 36.997C62.0638 36.7205 62.0873 36.4336 62.1342 36.1362ZM63.6214 36.1362H67.7463C67.7463 35.4997 67.6028 34.9154 67.3158 34.3833C67.0392 33.8772 66.5331 33.6242 65.7973 33.6242H65.7112C64.9755 33.6451 64.4485 33.9111 64.1301 34.4224C63.8118 34.9337 63.6423 35.5049 63.6214 36.1362Z" fill="black"/>
</svg>
